<?xml version="1.0" standalone="no"?><!DOCTYPE svg PUBLIC "-//W3C//DTD SVG 1.1//EN" "http://www.w3.org/Graphics/SVG/1.1/DTD/svg11.dtd"><svg t="1608034317897" class="icon" viewBox="0 0 1024 1024" version="1.1" xmlns="http://www.w3.org/2000/svg" p-id="15345" width="64" height="64" xmlns:xlink="http://www.w3.org/1999/xlink"><defs><style type="text/css"></style></defs><path d="M843.1 473.8l-171.7-42c-0.6-0.2-1.3-0.2-1.9-0.2H355.3c-0.6 0-1.3 0.1-1.9 0.2l-171.7 42c-3.6 0.9-6.1 4.1-6.1 7.8v57.1c0 3.7 2.5 6.9 6.1 7.8l171.7 42c0.6 0.2 1.3 0.2 1.9 0.2h314.2c0.6 0 1.3-0.1 1.9-0.2l171.7-42c3.6-0.9 6.1-4.1 6.1-7.8v-57.1c0-3.7-2.6-6.9-6.1-7.8z" fill="#FBFCFF" p-id="15346"></path><path d="M669.4 595.7H355.3c-1.2 0-2.4-0.1-3.6-0.4l-171.7-42c-6.7-1.6-11.4-7.6-11.4-14.6v-57.1c0-6.9 4.7-12.9 11.4-14.6l171.7-42c1.2-0.3 2.4-0.4 3.6-0.4h314.2c1.2 0 2.4 0.1 3.6 0.4l171.7 42c6.7 1.6 11.4 7.6 11.4 14.6v57.1c0 6.9-4.7 12.9-11.4 14.6l-171.7 42c-1.3 0.2-2.5 0.4-3.7 0.4zM355.3 438.5h-0.2l-171.7 42c-0.4 0.1-0.8 0.5-0.8 1v57.1c0 0.5 0.3 0.9 0.8 1l171.7 42H669.7l171.7-42c0.4-0.1 0.8-0.5 0.8-1v-57.1c0-0.5-0.3-0.9-0.8-1l-171.7-42H355.3z" fill="#4D4D4D" p-id="15347"></path><path d="M426.8 668.4h176.1l63.2-80c6.1-17.1 9.5-35.5 9.5-54.7 0-88.8-72-160.9-160.9-160.9s-160.9 72-160.9 160.9c0 19.2 3.4 37.8 9.6 54.8l63.4 79.9z" fill="#FBFCFF" p-id="15348"></path><path d="M602.9 675.4H426.8c-2.1 0-4.2-1-5.5-2.7l-63.2-79.8c-0.5-0.6-0.8-1.2-1.1-1.9-6.7-18.2-10-37.5-10-57.2 0-92.6 75.3-167.9 167.9-167.9 92.6 0 167.9 75.3 167.9 167.9 0 19.6-3.3 38.8-9.9 57.1-0.3 0.7-0.6 1.4-1.1 2l-63.2 80c-1.5 1.5-3.5 2.5-5.7 2.5z m-172.7-14h169.4L660 585c5.8-16.5 8.7-33.7 8.7-51.3 0-84.8-69-153.9-153.9-153.9-84.8 0-153.9 69-153.9 153.9 0 17.7 3 35 8.8 51.4l60.5 76.3z" fill="#4D4D4D" p-id="15349"></path><path d="M938.9 435.7h-55.2c-3.4 0-6.4-2.1-7.5-5.3l-64.4-180.9c-1.5-4.2 0.8-8.9 5.1-10.3l15.5-5c3.6-1.2 7.6 0.4 9.5 3.7L946 423.8c2.9 5.4-1 11.9-7.1 11.9z" fill="#FBFCFF" p-id="15350"></path><path d="M938.9 442.7h-55.2c-6.3 0-12-4-14.1-10l-64.4-180.9c-1.4-3.8-1.1-8 0.7-11.7 1.8-3.7 4.9-6.4 8.8-7.6l15.5-5c6.8-2.2 14.2 0.7 17.7 6.9l104.1 186c2.6 4.7 2.6 10.3-0.1 14.9s-7.6 7.4-13 7.4zM834.8 240.8h-0.3l-15.5 5c-0.3 0.1-0.5 0.3-0.6 0.5-0.1 0.2-0.2 0.4 0 0.8L882.8 428c0.1 0.4 0.5 0.7 0.9 0.7h55.2c0.1 0 0.6 0 0.9-0.5 0.3-0.5 0.1-0.9 0-1L835.7 241.3c-0.2-0.3-0.5-0.5-0.9-0.5z" fill="#4D4D4D" p-id="15351"></path><path d="M938.9 584.5h-55.2c-3.4 0-6.4 2.1-7.5 5.3l-64.4 180.9c-1.5 4.2 0.8 8.9 5.1 10.3l15.5 5c3.6 1.2 7.6-0.4 9.5-3.7L946 596.4c2.9-5.4-1-11.9-7.1-11.9z" fill="#FBFCFF" p-id="15352"></path><path d="M834.8 793.4c-1.5 0-3.1-0.2-4.6-0.7l-15.5-5c-3.9-1.3-7-4-8.8-7.6-1.8-3.7-2-7.8-0.7-11.7l64.4-180.9c2.1-6 7.8-10 14.1-10h55.2c5.4 0 10.2 2.8 12.9 7.4 2.7 4.6 2.8 10.2 0.1 14.9l-104 185.9c-2.7 4.8-7.8 7.7-13.1 7.7z m48.9-201.9c-0.4 0-0.8 0.3-0.9 0.7L818.4 773c-0.1 0.3 0 0.6 0 0.8 0.1 0.2 0.3 0.4 0.6 0.5l15.5 5c0.5 0.1 1 0 1.2-0.5L939.8 593c0.1-0.1 0.3-0.5 0-1s-0.7-0.5-0.9-0.5h-55.2z" fill="#4D4D4D" p-id="15353"></path><path d="M850.7 473.2l24.9-34.2c1.5-2.1 3.9-3.3 6.5-3.3h40.7c4.4 0 8 3.6 8 8v132.7c0 4.4-3.6 8-8 8h-40.7c-2.6 0-5-1.2-6.5-3.3L850.7 547c-1-1.4-1.5-3-1.5-4.7v-64.4c0-1.7 0.5-3.3 1.5-4.7z" fill="#FBFCFF" p-id="15354"></path><path d="M922.8 591.5h-40.7c-4.8 0-9.3-2.3-12.1-6.2l-25-34.2c-1.9-2.6-2.9-5.6-2.9-8.8v-64.4c0-3.2 1-6.3 2.9-8.8l24.9-34.2c2.8-3.9 7.3-6.2 12.1-6.2h40.7c8.3 0 15 6.7 15 15v132.7c0.1 8.3-6.6 15.1-14.9 15.1z m-40.7-148.8c-0.3 0-0.6 0.2-0.8 0.4l-24.9 34.2c-0.1 0.2-0.2 0.4-0.2 0.6v64.4c0 0.2 0.1 0.4 0.2 0.6l24.9 34.2c0.2 0.3 0.5 0.4 0.8 0.4h40.7c0.6 0 1-0.4 1-1V443.7c0-0.6-0.4-1-1-1h-40.7z" fill="#4D4D4D" p-id="15355"></path><path d="M515.2 515.6m-100.3 0a100.3 100.3 0 1 0 200.6 0 100.3 100.3 0 1 0-200.6 0Z" fill="#00DFD4" p-id="15356" data-spm-anchor-id="a313x.7781069.0.i2" class="selected"></path><path d="M515.2 622.8c-59.1 0-107.3-48.1-107.3-107.3 0-59.1 48.1-107.3 107.3-107.3s107.3 48.1 107.3 107.3c-0.1 59.2-48.2 107.3-107.3 107.3z m0-200.5c-51.4 0-93.3 41.8-93.3 93.3 0 51.4 41.8 93.3 93.3 93.3s93.3-41.8 93.3-93.3c-0.1-51.5-41.9-93.3-93.3-93.3z" fill="#4D4D4D" p-id="15357"></path><path d="M515.2 515.6m-45.6 0a45.6 45.6 0 1 0 91.2 0 45.6 45.6 0 1 0-91.2 0Z" fill="#FBFCFF" p-id="15358"></path><path d="M515.2 568.1c-29 0-52.6-23.6-52.6-52.6s23.6-52.6 52.6-52.6 52.6 23.6 52.6 52.6-23.7 52.6-52.6 52.6z m0-91.1c-21.3 0-38.6 17.3-38.6 38.6s17.3 38.6 38.6 38.6 38.6-17.3 38.6-38.6c-0.1-21.3-17.4-38.6-38.6-38.6z" fill="#4D4D4D" p-id="15359"></path><path d="M85.8 435.7H141c3.4 0 6.4-2.1 7.5-5.3l64.4-180.9c1.5-4.2-0.8-8.9-5.1-10.3l-15.5-5c-3.6-1.2-7.6 0.4-9.5 3.7l-104 185.9c-3 5.4 0.8 11.9 7 11.9z" fill="#FBFCFF" p-id="15360"></path><path d="M141 442.7H85.8c-5.4 0-10.2-2.8-12.9-7.4-2.7-4.6-2.8-10.2-0.1-14.9l104.1-185.9c3.5-6.2 10.9-9.1 17.7-6.9l15.5 5c3.9 1.3 7 4 8.8 7.6s2 7.8 0.7 11.7l-64.4 180.9c-2.2 5.9-7.9 9.9-14.2 9.9z m48.9-201.9c-0.4 0-0.7 0.2-0.9 0.5l-104.1 186c-0.1 0.1-0.3 0.5 0 1s0.7 0.5 0.9 0.5H141c0.4 0 0.8-0.3 0.9-0.7l64.4-180.9c0.1-0.3 0-0.6 0-0.8-0.1-0.2-0.3-0.4-0.6-0.5l-15.5-5c-0.1 0-0.2-0.1-0.3-0.1z" fill="#4D4D4D" p-id="15361"></path><path d="M85.8 584.5H141c3.4 0 6.4 2.1 7.5 5.3l64.4 180.9c1.5 4.2-0.8 8.9-5.1 10.3l-15.5 5c-3.6 1.2-7.6-0.4-9.5-3.7l-104-185.9c-3-5.4 0.8-11.9 7-11.9z" fill="#FBFCFF" p-id="15362"></path><path d="M189.9 793.4c-5.3 0-10.4-2.8-13.1-7.7L72.7 599.8c-2.6-4.7-2.6-10.3 0.1-14.9s7.6-7.4 12.9-7.4H141c6.3 0 12 4 14.1 10l64.4 180.9c1.4 3.8 1.1 8-0.7 11.7-1.8 3.7-4.9 6.4-8.8 7.6l-15.5 5c-1.5 0.4-3.1 0.7-4.6 0.7zM85.8 591.5c-0.1 0-0.6 0-0.9 0.5-0.3 0.5-0.1 0.9 0 1L189 778.9c0.2 0.4 0.7 0.6 1.2 0.5l15.5-5c0.3-0.1 0.5-0.3 0.6-0.5s0.2-0.4 0-0.8l-64.3-181c-0.1-0.4-0.5-0.7-0.9-0.7H85.8z" fill="#4D4D4D" p-id="15363"></path><path d="M174 473.2L149.1 439c-1.5-2.1-3.9-3.3-6.5-3.3h-40.7c-4.4 0-8 3.6-8 8v132.7c0 4.4 3.6 8 8 8h40.7c2.6 0 5-1.2 6.5-3.3L174 547c1-1.4 1.5-3 1.5-4.7v-64.4c0-1.7-0.5-3.3-1.5-4.7z" fill="#FBFCFF" p-id="15364"></path><path d="M142.6 591.5h-40.7c-8.3 0-15-6.7-15-15V443.7c0-8.3 6.7-15 15-15h40.7c4.8 0 9.3 2.3 12.1 6.2l24.9 34.2c1.9 2.6 2.9 5.6 2.9 8.8v64.4c0 3.2-1 6.3-2.9 8.8l-24.9 34.2c-2.8 3.9-7.3 6.2-12.1 6.2z m-40.7-148.8c-0.6 0-1 0.4-1 1v132.7c0 0.6 0.4 1 1 1h40.7c0.3 0 0.6-0.2 0.8-0.4l24.9-34.2c0.1-0.2 0.2-0.4 0.2-0.6v-64.4c0-0.2-0.1-0.4-0.2-0.6L143.4 443c-0.2-0.3-0.5-0.4-0.8-0.4h-40.7z" fill="#4D4D4D" p-id="15365"></path><path d="M465.9 637.3m-16 0a16 16 0 1 0 32 0 16 16 0 1 0-32 0Z" fill="#FBFCFF" p-id="15366"></path><path d="M465.9 660.2c-12.7 0-23-10.3-23-23s10.3-23 23-23 23 10.3 23 23-10.4 23-23 23z m0-31.9c-5 0-9 4-9 9s4 9 9 9 9-4 9-9-4.1-9-9-9z" fill="#4D4D4D" p-id="15367"></path><path d="M563.9 637.3m-16 0a16 16 0 1 0 32 0 16 16 0 1 0-32 0Z" fill="#FBFCFF" p-id="15368"></path><path d="M563.9 660.2c-12.7 0-23-10.3-23-23s10.3-23 23-23 23 10.3 23 23c-0.1 12.7-10.4 23-23 23z m0-31.9c-5 0-9 4-9 9s4 9 9 9 9-4 9-9c-0.1-5-4.1-9-9-9z" fill="#4D4D4D" p-id="15369"></path><path d="M414.9 515.6h54.6" fill="#E6E7EB" p-id="15370"></path><path d="M469.5 522.6h-54.6c-3.9 0-7-3.1-7-7s3.1-7 7-7h54.6c3.9 0 7 3.1 7 7s-3.2 7-7 7z" fill="#4D4D4D" p-id="15371"></path><path d="M560.7 515.6h54.6" fill="#E6E7EB" p-id="15372"></path><path d="M615.3 522.6h-54.6c-3.9 0-7-3.1-7-7s3.1-7 7-7h54.6c3.9 0 7 3.1 7 7s-3.1 7-7 7z" fill="#4D4D4D" p-id="15373"></path><path d="M515.2 415.3V470" fill="#E6E7EB" p-id="15374"></path><path d="M515.2 477c-3.9 0-7-3.1-7-7v-54.7c0-3.9 3.1-7 7-7s7 3.1 7 7V470c0 3.9-3.2 7-7 7z" fill="#4D4D4D" p-id="15375"></path><path d="M515.2 561.4V616" fill="#E6E7EB" p-id="15376"></path><path d="M515.2 623c-3.9 0-7-3.1-7-7v-54.6c0-3.9 3.1-7 7-7s7 3.1 7 7V616c0 3.8-3.2 7-7 7z" fill="#4D4D4D" p-id="15377"></path></svg>